<svg id="Layer_1" data-name="Layer 1" xmlns="http://www.w3.org/2000/svg" viewBox="0 0 329.33 120.17"><defs><style>.cls-1{fill:#fff;}</style></defs><path class="cls-1" d="M19,45.09a1.27,1.27,0,0,1-.3.44c-.2.23-1.2-.27-1.43-.4A5.39,5.39,0,0,1,17,42.54l0-.07a17.82,17.82,0,0,0,1.08-2c.15-.33.24-.65.36-1,0-.06,0-.13,0-.19a1.25,1.25,0,0,1,1.73-.62,30.82,30.82,0,0,1,3.22,1.28,18.42,18.42,0,0,1,5.83,3.6c1.64,1.67,2.74,3.67,1.73,6-1.41,3.28-5.89,3.35-8.81,2.46-.53-.19-1.05-.38-1.59-.62-1.48-.7-3-1.45-4.4-2.13-2.81-1.74-5.65-3.17-8-5.47a14.11,14.11,0,0,1-2.25-3,3.21,3.21,0,0,1-.2-3,2.82,2.82,0,0,1,2.86-1.94,8,8,0,0,1,2.46.91c.21.09.29.66.42,1a2.3,2.3,0,0,1-.85.41c-.6.07-1.2,0-1.82,0a3.2,3.2,0,0,0-.9.36,5.42,5.42,0,0,0,.33,1,12.92,12.92,0,0,0,3.88,3.58,57.1,57.1,0,0,0,10.2,5.62,10.13,10.13,0,0,0,5.08.69c.55,0,1.33-.28,1.56-.83.64-1.47-3-3.88-4-4.45-1.36-.8-2.76-1.44-4.17-2.15-.47-.24-.74-.1-1.1.42l-.13.3C19.32,43.37,19.31,44.4,19,45.09Z"/><path class="cls-1" d="M21.55,30.82c.68-.43,1.18-.06,1.57.47a22.08,22.08,0,0,0,5.93,5.47c.93.6,3.88,2.17,4.78,1,.57-.72,0-1.5-.39-2.16A20.22,20.22,0,0,0,28.6,30c-1.31-1-2.46-2.23-3.68-3.33a.87.87,0,0,1-.22-1.26.92.92,0,0,1,1.37-.25,19.42,19.42,0,0,1,2.31,1.5,43.6,43.6,0,0,0,6.3,4.52c.43.19,2.29.92,2.64.44a2.45,2.45,0,0,0-.3-2.13,2.08,2.08,0,0,1-.23-2.33c1.05-1.09,3.78,3.53,2.92,5.2a7.24,7.24,0,0,1-.46.73,2.77,2.77,0,0,1-2.67,1.2c-.45,0-.69-.06-.79.07s0,.33.08.78a4,4,0,0,1-.61,3.54c-1.69,2.29-4.21,2.23-6.54,1a22.54,22.54,0,0,1-2.18-1.41,23,23,0,0,1-5.42-5.5,1.32,1.32,0,0,1,0-1.55A3,3,0,0,1,21.55,30.82Z"/><path class="cls-1" d="M27.74,10a2.9,2.9,0,0,1,.42-.25,1,1,0,0,1,1.47.34l1.11,1.62c.69,1,.78,1,1.84.49a13.8,13.8,0,0,1,1.88-.86c.32-.1.71.11,1.07.18-.07.37-.06.84-.29,1a5.67,5.67,0,0,1-.89.73,6.79,6.79,0,0,1-1.05.6c-.59.41-.63.59-.3,1.24,1.78,3.23,3.52,6.52,5.31,9.77a17.2,17.2,0,0,0,1.59,2.37c.3.38,1.84,2,2.38,1.62a1.47,1.47,0,0,0,.39-.82,14,14,0,0,0,.5-5.11c0-.66.14-1.76.71-2.15a.51.51,0,0,1,.23-.12c.78-.26,1.53,1.41,1.44,3.42A18.41,18.41,0,0,1,45,27.9a4.57,4.57,0,0,1-1.78,2.61,4.28,4.28,0,0,1-5.53-.81A8.06,8.06,0,0,0,37,29a44.58,44.58,0,0,1-5.47-8.27c-.62-1.48-1.34-2.93-1.93-4.43-.31-.74-.64-.76-1.24-.42-1,.45-1.93.84-2.9,1.27-.42.21-1.4.56-1.78.07a1.1,1.1,0,0,1,.06-.95,3.44,3.44,0,0,1,.89-1l.86-.59a16.21,16.21,0,0,1,1.88-1.14l.24-.16c.38-.26.38-.5.16-.94C27.18,11.68,26.74,10.63,27.74,10Z"/><path class="cls-1" d="M35.78,4.43a4.23,4.23,0,0,1,.42-.25,1,1,0,0,1,1.47.34l1.11,1.62c.69,1,.79,1,1.84.49a13.73,13.73,0,0,1,1.88-.85c.32-.11.71.11,1.07.17-.07.37-.06.84-.28,1a6.76,6.76,0,0,1-.89.73,8.56,8.56,0,0,1-1.06.61c-.59.4-.63.59-.3,1.23,1.78,3.23,3.52,6.52,5.31,9.78a17.1,17.1,0,0,0,1.59,2.36c.3.39,1.84,2,2.38,1.62a1.41,1.41,0,0,0,.39-.82,14,14,0,0,0,.5-5.11c0-.65.14-1.76.71-2.15a.63.63,0,0,1,.23-.12c.78-.26,1.53,1.41,1.44,3.42a18.5,18.5,0,0,1-.53,3.86A4.63,4.63,0,0,1,51.28,25a4.28,4.28,0,0,1-5.52-.82A9.78,9.78,0,0,0,45,23.5a45.09,45.09,0,0,1-5.47-8.27c-.62-1.48-1.34-2.93-1.93-4.43-.31-.74-.64-.76-1.24-.42-1,.46-1.92.84-2.9,1.27-.41.21-1.4.57-1.78.07a1.1,1.1,0,0,1,.06-1,3.44,3.44,0,0,1,.89-1l.86-.59a15.61,15.61,0,0,1,1.88-1.13l.25-.17c.37-.26.37-.49.15-.94C35.22,6.16,34.78,5.12,35.78,4.43Z"/><path class="cls-1" d="M56.05,11.27c.65-.1.9-.2.83-.92s.4-1.08,1.12-1.19,1.12.24,1.23,1c.35,3.12.7,4.33,1.08,7.45A8.57,8.57,0,0,0,61.44,21a.79.79,0,0,0,.69.4.39.39,0,0,0,.25-.14c.44-.82,1-2.9,1.21-3.25a1,1,0,0,1,.64-.59c.06,0,.13,0,.23,0,.38.08.27,3.2-.17,4.29-.33.91-1,1-1.94,1.18a3.41,3.41,0,0,1-3-.53c-.19-.17-.33-.25-.49-.23a1,1,0,0,0-.5.44,4.7,4.7,0,0,1-3,1.79A4.84,4.84,0,0,1,52.65,24,2.63,2.63,0,0,1,51,21.66a42.94,42.94,0,0,1,.09-4.54c0-.37.14-.68.15-1.05v0c.39-2.11,1.91-4.42,4.17-4.75A3.72,3.72,0,0,1,56.05,11.27Zm-1,1.73a7.6,7.6,0,0,0-1.12,2.31,27.9,27.9,0,0,0-.5,5.17,4.21,4.21,0,0,0,.51,2.14,1.16,1.16,0,0,0,1,.42,1.44,1.44,0,0,0,1-.91c1.4-2.85,1.46-5.4,1.24-8.51,0-.53-.14-.94-.72-1.09a1.73,1.73,0,0,0-.67,0A.9.9,0,0,0,55.05,13Z"/><path class="cls-1" d="M77.65,15.51c.68.07.84,1.82.11,2.92-1,1.25-2.15,2.3-3.86,2.11A3,3,0,0,1,71.29,18c0-.69-.17-1.86-.07-3.06a25.81,25.81,0,0,1,1-5.86c.33-.94.63-1.11,1.6-1a.9.9,0,0,1,.8,1.15c-.18,1.1-.42,3.3-.44,3.29-.16,1.43-.38,2.87-.44,4.31a6.64,6.64,0,0,0,.52,1.84,9.21,9.21,0,0,0,1.32-1.33C76,16.85,77,15.43,77.65,15.51ZM74.51,1.74a2.16,2.16,0,0,1,1.93,2.05,1.78,1.78,0,0,1-2.09,1.79,2.18,2.18,0,0,1-2.12-2.24A2.15,2.15,0,0,1,74.51,1.74Z"/><path class="cls-1" d="M114.66,108.92a4.11,4.11,0,0,1-.44-.84c-.13-.32-.38-.84-.74-1.57a7.37,7.37,0,0,1-.64-1.57,2.63,2.63,0,0,1-.49-.68l-.39-.79a2.23,2.23,0,0,0-.54-.69,2.09,2.09,0,0,1-.54-.68,8.18,8.18,0,0,1-.74-1.13c-.23-.43-.44-.8-.63-1.13a3.3,3.3,0,0,1-.4-.93,5.56,5.56,0,0,0-.29-.94,7,7,0,0,0-.64-1.72,14.38,14.38,0,0,1-.74-1.62c-.19-.52-.47-1.22-.83-2.11s-.72-1.81-1.08-2.79-.66-1.9-.88-2.75a8.25,8.25,0,0,1-.35-2,4.53,4.53,0,0,1,1.18-1.13,12.35,12.35,0,0,0,1.28-.93,1.76,1.76,0,0,0,.49-.49,3,3,0,0,1,.39-.49,12.41,12.41,0,0,0,1.23-1q1-.88,2.31-1.92l2.4-2c.75-.62,1.26-1,1.52-1.23a4.38,4.38,0,0,1,.59-.39l.3-.15a1.37,1.37,0,0,0,.24-.19,6.18,6.18,0,0,1,.54-.45,3,3,0,0,0,.64-.63,4.16,4.16,0,0,1,.54-.64,8.22,8.22,0,0,1,1.82-1.28c.81-.46,1.62-1,2.4-1.47a10.09,10.09,0,0,0,2-1.72,2,2,0,0,0,.64-1.82.46.46,0,0,0-.15-.34l-.24-.25a1,1,0,0,0-.59-.24,1.72,1.72,0,0,1-.59-.15c-.46,0-.64-.11-.54-.34a.39.39,0,0,0-.15-.54c-.26-.07-.32-.21-.19-.44s.1-.38-.1-.45-.3-.17-.3-.34a2.72,2.72,0,0,1,0-.49,1.59,1.59,0,0,0,0-.39c0-.1-.1-.15-.29-.15a2.71,2.71,0,0,1-1.08-.25,2.91,2.91,0,0,0-1.08-.24,2.39,2.39,0,0,0-.69.29,2.15,2.15,0,0,1-.78.3.71.71,0,0,1-.5,0,.83.83,0,0,0-.58,0,2.45,2.45,0,0,0-1.08.44,1.61,1.61,0,0,1-.89.34c-.33,0-.47-.11-.44-.34s-.12-.34-.44-.34a1.53,1.53,0,0,0-.69.39l-.88.69a.5.5,0,0,1-.2.24,1.62,1.62,0,0,0-.29.25,1.8,1.8,0,0,1-.59.34,1.61,1.61,0,0,0-.59.34,2.5,2.5,0,0,0-.39.59,2,2,0,0,1-.59.69c-.27.26-.43.39-.49.39s-.1,0-.1,0,0,0-.1,0a2.17,2.17,0,0,0-.39.35l-.3.39A8.32,8.32,0,0,0,107,69.7a8.46,8.46,0,0,1-2.16,2.16q-.89.78-1.62,1.47c-.49.46-1,1-1.52,1.47a22.81,22.81,0,0,0-3,2.41,14.34,14.34,0,0,1-3,2.21,5.75,5.75,0,0,1,.69-1.72c.33-.56.65-1.1,1-1.62.2-.33.4-.62.59-.89a3.57,3.57,0,0,0,.49-.88,4.22,4.22,0,0,1,.59-1.13,4.07,4.07,0,0,0,.59-1.13.66.66,0,0,0,.2-.49c0-.19.06-.39,8.38-19.68l1.32-1.68a1.92,1.92,0,0,1,.44-.78.2.2,0,0,0,.1-.3.33.33,0,0,1,.1-.39l.54-1.08c.1-.2.16-.34.2-.44a1.93,1.93,0,0,1,.19-.4c.1-.16.25-1.87.44-2.39-.13-.13-.06-.36.2-.69s.33-.52.2-.59a.9.9,0,0,1-.54-.88c0-.46-.22.64-.54.58a1.09,1.09,0,0,0-.84-.05,1.13,1.13,0,0,1-.73.05c-1.25,1-2.07,1.44-2.46,1.18a3,3,0,0,1-1-1.13,2.23,2.23,0,0,0-1-1c-.43-.2-1.29.23-2.6,1.27a1.9,1.9,0,0,1-.79.49,6.13,6.13,0,0,0-1,.2c-.2-.2-.38-.21-.54,0a.38.38,0,0,1-.54,0,.73.73,0,0,0-.79-.15,1.39,1.39,0,0,1-1-.05,2.32,2.32,0,0,0-1,1.08c-.2.46-.39.95-.59,1.48a1.2,1.2,0,0,1-.39.39,1.2,1.2,0,0,0-.39.39c-.27.53-.3.92-.1,1.18s.13.62-.2,1.08S94.29,50,94,50.5s-8.64,18.67-8.78,19.2a10.79,10.79,0,0,0-1.52,2.6l-1.32,3.19a4.09,4.09,0,0,1-.64,1,3.82,3.82,0,0,0-.64,1l-.34.88c-.1.27-.22.56-.35.89-.45,1-.86,2-1.22,2.89s-.74,1.92-1.13,2.9a.74.74,0,0,0-.44.59,4,4,0,0,1-.25.88,1.5,1.5,0,0,1-.29.4,1.46,1.46,0,0,0-.3.39c-.19.46-.39,1-.59,1.52s-.36,1-.49,1.33L75.24,92c-.33.92-.65,1.84-1,2.75s-.62,1.84-.88,2.75c-.14.13-.19.25-.15.35a.48.48,0,0,1,0,.34,7.27,7.27,0,0,1-.59,1.42,9,9,0,0,0-.59,1.33,1.16,1.16,0,0,1,0,.34,1.23,1.23,0,0,0,0,.35,1.56,1.56,0,0,0-.19.68,1.6,1.6,0,0,1-.2.69,1.68,1.68,0,0,0-.2.74,1.62,1.62,0,0,1-.19.73l-.49,1c-.14.4-.27.81-.4,1.23a7.33,7.33,0,0,1-.49,1.23,6,6,0,0,0-.44,2.35c0,.73.08,1.41.15,2.07a3.75,3.75,0,0,0-.59,1.62,7.65,7.65,0,0,1-.39,1.62,1.56,1.56,0,0,0,.68.78.9.9,0,0,1,.4,1c.52.53,1,.64,1.37.35a2.72,2.72,0,0,1,1.38-.54,1.14,1.14,0,0,1,.44.1,1.28,1.28,0,0,0,.44.09c.13.07.23.07.29,0a.45.45,0,0,1,.3-.09.47.47,0,0,1,.44.29,5.74,5.74,0,0,1,.29.69,4.33,4.33,0,0,0,.3.64.41.41,0,0,0,.34.24.35.35,0,0,0,.2-.34.37.37,0,0,1,.29-.35c.53.33.8.46.84.4s.31-.07.83,0A3.61,3.61,0,0,0,78,118c.36-.49.64-.73.83-.73.26.19.54.08.84-.35a2.48,2.48,0,0,1,.83-.83c.13.19.3.19.49,0s.33-.2.4,0,0,.08.09,0a.28.28,0,0,1,.3,0c-.13-.2-.12-.35.05-.45s.34-.21.54-.34a2.79,2.79,0,0,1,.39-1.23,3.94,3.94,0,0,0,.49-1,.76.76,0,0,0-.1-.64.92.92,0,0,1,0-.83,4.54,4.54,0,0,1,.3-.79c.13-.26.26-.55.39-.88q1-2.55,1.67-4.91a37.86,37.86,0,0,1,1.67-4.61c.13-.4.28-.82.44-1.28a9.37,9.37,0,0,1,.44-1.08,2.5,2.5,0,0,1,1-.88c.2-.13.43-.26.69-.4a3.24,3.24,0,0,0,.79-.58l1.57-1.38a6.56,6.56,0,0,1,.68,1.87,5.35,5.35,0,0,0,.69,1.76.17.17,0,0,1,0,.15.21.21,0,0,0,0,.15l.4.49a18.16,18.16,0,0,1,1.08,2.45,6.85,6.85,0,0,0,.44.79l.44.69a1.58,1.58,0,0,0,.1.68,6,6,0,0,0,.49,1,6.49,6.49,0,0,1,.49,1,.85.85,0,0,1,0,.49.52.52,0,0,0,.15.49,1.21,1.21,0,0,0,.49.78,1.89,1.89,0,0,1,.59.79,6.58,6.58,0,0,1,.49,1.08,3.12,3.12,0,0,0,.49,1,2.67,2.67,0,0,0,.24.54l.25.44a9,9,0,0,1,.74,1.43,1.64,1.64,0,0,0,.93.93,12.49,12.49,0,0,0,1,1.37,13.73,13.73,0,0,1,1,1.38c.13.2.31.44.54.74a1.57,1.57,0,0,0,.64.54,1.06,1.06,0,0,0,.88-.2,2,2,0,0,1,.89-.39,2.66,2.66,0,0,1,1.08-.15,1.58,1.58,0,0,0,1-.25c.26-.13.52-.24.78-.34a3.17,3.17,0,0,0,.69-.34l.3-.59c.85-.79,1.5-.75,2,.1a3.46,3.46,0,0,0,1.62-.15c.36-.16.47-.57.34-1.23-.06-.2-.11-.36-.14-.49a1.31,1.31,0,0,1,0-.39c-.13-.33-.22-.48-.25-.44a4.26,4.26,0,0,1,.35-.45c.32.07.44,0,.34-.24s0-.41.44-.54.67-.38.64-.74a8.23,8.23,0,0,0-.15-1A3.51,3.51,0,0,0,114.66,108.92Z"/><path class="cls-1" d="M148.21,69.26l.39-1a2.56,2.56,0,0,0,.2-.93,4.49,4.49,0,0,1,.1-.94,7,7,0,0,1,.49-1.13,1.33,1.33,0,0,0,.1-1.12c.19-.59.4-1.3.64-2.12s.4-1.55.54-2.2a10.66,10.66,0,0,1,.09-1.38,8,8,0,0,1,.3-1.28v-.83a1.24,1.24,0,0,1,.19-.83,4.25,4.25,0,0,1,.89-.1.52.52,0,0,0,.49-.05.77.77,0,0,1,.49-.15,1.15,1.15,0,0,0,.44-.15,1.2,1.2,0,0,1,.35-.14,1.15,1.15,0,0,1,.58,0,1.31,1.31,0,0,0,.59-.05.56.56,0,0,1,.4,0,.41.41,0,0,0,.39-.15,13.14,13.14,0,0,1,3.14-.19.47.47,0,0,0,.44,0l.44-.25a.92.92,0,0,1,.25,0,.93.93,0,0,0,.24.05,2.5,2.5,0,0,0,.74-.1,2.94,2.94,0,0,1,.74-.1,2.49,2.49,0,0,1,.93-.19,1.85,1.85,0,0,0,.83-.2,5,5,0,0,1,.25-.59,1.29,1.29,0,0,0,.15-.59.6.6,0,0,0-.15-.44.59.59,0,0,1-.15-.44.59.59,0,0,0,.35-.64,5,5,0,0,0-.15-.74c.46-.52.85-.94,1.18-1.27a2.89,2.89,0,0,0,.59-1.77.61.61,0,0,1,.54-.15,1.2,1.2,0,0,0,.63-.05,1.85,1.85,0,0,0,.1-1.08,3.26,3.26,0,0,1,0-1.08.44.44,0,0,1,0-.39.39.39,0,0,0,0-.39,1.29,1.29,0,0,0-.49-.88,3.59,3.59,0,0,0-1-.5,2.78,2.78,0,0,0-.69-.39,4.9,4.9,0,0,1-.68-.29,5.3,5.3,0,0,0-1.58-.15,7.89,7.89,0,0,0-1.57.25,1.27,1.27,0,0,1-1.22.34,7.61,7.61,0,0,0-1.52-.15,18.58,18.58,0,0,0-2.36.15,18,18,0,0,1-2.26.15,9.62,9.62,0,0,1-1.62,0c-.56,0-1.1,0-1.62,0a45.72,45.72,0,0,0-5.25.49,48.34,48.34,0,0,1-5.16.49,37.39,37.39,0,0,1-5,.88c-1.77.2-3.47.46-5.11.79a.82.82,0,0,1-.64.64,1,1,0,0,0-.73.54.49.49,0,0,0,0,.63,3.79,3.79,0,0,1,.45.54c-.4.27-.49.69-.3,1.28a1.25,1.25,0,0,0-.29.44,1.63,1.63,0,0,1-.4.54,2,2,0,0,1-1.17.59,1,1,0,0,0-.89.59c-.13.39,0,.65.3.79l1,.39a3.49,3.49,0,0,1-.39.49,3,3,0,0,0-.4.49.68.68,0,0,0,0,.49.59.59,0,0,1,0,.49.64.64,0,0,1-.34.3,1.25,1.25,0,0,0-.44.29q-.3.5-.69,1.23a2.48,2.48,0,0,0-.29,1.52.64.64,0,0,0,.09.34,2.3,2.3,0,0,1,.2.35.69.69,0,0,1,0,.54c-.06.09,0,.21.2.34s.34.13.64,0a7.22,7.22,0,0,1,.73-.29,33.19,33.19,0,0,1,9.72-2,1.19,1.19,0,0,1,1.08-.29,33.86,33.86,0,0,1-.78,4.76,27.57,27.57,0,0,1-1.38,4.37l-.39.78c-.13.27-.26.56-.39.89a7.1,7.1,0,0,0-.3.93,5.47,5.47,0,0,1-.29.93,9,9,0,0,1-.44.94,6.67,6.67,0,0,0-.45.93,1,1,0,0,0-.19.59,1.1,1.1,0,0,1-.2.59,4,4,0,0,1-.44.83c-.16.23-.31.44-.44.64a.91.91,0,0,0-.25.54,3.15,3.15,0,0,1-.15.64,5.87,5.87,0,0,1-.39.68,7.08,7.08,0,0,0-.39.69c-.39.72-.8,1.43-1.23,2.11a17,17,0,0,0-1.13,2.21,3.52,3.52,0,0,1-.49.74,3.19,3.19,0,0,0-.49.83L125.43,85a2.75,2.75,0,0,0-1,.74,2.71,2.71,0,0,1-1,.73,2.34,2.34,0,0,1-2.85-.39c-.06,0-.1,0-.1-.15s-.06-.18-.19-.24l-.59-.3a.94.94,0,0,1-.25-.34.68.68,0,0,0-.14-.25,1.36,1.36,0,0,0-.3-.24.54.54,0,0,1-.2-.25c-.13-.91-.52-1.34-1.17-1.27a.5.5,0,0,0-.35.14,1.42,1.42,0,0,1-.34.25,2.36,2.36,0,0,1-.74.24,1,1,0,0,0-.54.25,3.52,3.52,0,0,0,.05.49.54.54,0,0,1-.15.49c-.26-.13-.45-.15-.58-.05a.82.82,0,0,1-.5.15,1.86,1.86,0,0,0-1.27-.29,1.67,1.67,0,0,1-.49-.5,1.06,1.06,0,0,0-.69-.39,1.16,1.16,0,0,0-.34,1,2.37,2.37,0,0,1-.15,1.08,2.12,2.12,0,0,1-.54.69,1,1,0,0,0-.34.79,2.46,2.46,0,0,0-1.08.83,2,2,0,0,1-1.18.74.68.68,0,0,1,0,.49l-.2.39a1.75,1.75,0,0,1,.54,1.13c0,.43.34.7.93.83a11.76,11.76,0,0,0,3.39,4.18,23.18,23.18,0,0,0,5.16,2.89l1.17.2a4.25,4.25,0,0,0,.89.1,1.78,1.78,0,0,1,.59.1,1.95,1.95,0,0,0,1.17,0,2.09,2.09,0,0,1,.69-.1,5.19,5.19,0,0,0,1.18,0c.39,0,.82,0,1.28,0a3.06,3.06,0,0,0,1.37-.35,2.32,2.32,0,0,1,1.37-.24,2.57,2.57,0,0,1,1.77-.88,1.93,1.93,0,0,0,1.57-.89,6.66,6.66,0,0,0,1.72-1,16.34,16.34,0,0,0,1.38-1.23c.42-.42.86-.85,1.32-1.27a8,8,0,0,1,1.57-1.13,13.59,13.59,0,0,0,2.06-2.75,27.53,27.53,0,0,1,2.07-3l.19-.68a19.24,19.24,0,0,0,1-2.16,5.85,5.85,0,0,1,1.23-1.87.79.79,0,0,1,0-.88,4.76,4.76,0,0,0,.44-1,5.53,5.53,0,0,1,.4-.84,3.09,3.09,0,0,0,.29-.73l1.67-3.83c0-.13,0-.21.1-.25s.1-.11.1-.24c.19-.59.35-1.17.49-1.72s.29-1.2.49-1.92Z"/><path class="cls-1" d="M191.71,83.79a3.82,3.82,0,0,0,.39-1.17,17.82,17.82,0,0,1,.89-2c.33-.62.65-1.26,1-1.91.13-.26.26-.51.39-.74a1.32,1.32,0,0,0,.2-.64,1.28,1.28,0,0,0,.05-.58,1.68,1.68,0,0,1,0-.69,5.39,5.39,0,0,1,.68-1.67,8.88,8.88,0,0,0,.79-1.57,6.56,6.56,0,0,0,.39-1.72,4.8,4.8,0,0,1,.59-1.82c.2-.52.43-1,.69-1.57a7.51,7.51,0,0,0,.59-1.57,17,17,0,0,0,.44-2.35,6.71,6.71,0,0,1,.64-2.26,3.6,3.6,0,0,1,.29-.49c.13-.2.23-.36.3-.49a1.56,1.56,0,0,0-.25-1.08c-.23-.4-.51-.53-.83-.4s-.28.18-.25.35a.27.27,0,0,1-.15.34.84.84,0,0,0-.78-.15,3,3,0,0,0-.54.35,5,5,0,0,1-.59.39.75.75,0,0,1-.74,0c.13-.52.25-.74.35-.64s.08,0-.05-.44a1.59,1.59,0,0,0-1.48-.88c-.13-.07-.24,0-.34.19a.87.87,0,0,1-.34.4c-.13.32-.28.39-.44.19s-.31-.19-.45,0-.23.23-.29.1-.16-.13-.3,0a5.08,5.08,0,0,1-1.32.93,5.62,5.62,0,0,0-1.33.94c-.19.26-.36.34-.49.24a.51.51,0,0,0-.49,0c-.33.13-.7.3-1.13.49a1.43,1.43,0,0,1-.93.2,5.88,5.88,0,0,0-1,1c-.26.36-.56.77-.88,1.23A3,3,0,0,1,184,66.52a4.36,4.36,0,0,1-.25,1.52c-.16.42-.31.86-.44,1.32q-.5,1.19-.93,2.31a26.06,26.06,0,0,0-.84,2.5,21.14,21.14,0,0,0-1.52,3,30.22,30.22,0,0,0-1.13,3.33,10,10,0,0,1-.74,1.38c-.36.59-.7,1.11-1,1.57a24,24,0,0,0-1.47,2.31,23.8,23.8,0,0,1-1.47,2.3,19.79,19.79,0,0,0-1.08,1.82A13.24,13.24,0,0,1,172,91.65l-.89.78a7,7,0,0,0-.93,1.23,4,4,0,0,1-.93,1.13,1.52,1.52,0,0,1-.44.15.87.87,0,0,0-.45.24,3.43,3.43,0,0,0-.78.64,2,2,0,0,1-.79.54.92.92,0,0,1-.44.1,1,1,0,0,0-.54.2l-.39.19a.81.81,0,0,1-.39.1,1.73,1.73,0,0,1-.94-.29,2.42,2.42,0,0,1-.63-.59,3.14,3.14,0,0,1-.74-2.41,26.65,26.65,0,0,1,.24-3,2.1,2.1,0,0,1,.15-.84,5.21,5.21,0,0,0,.25-.73,4.14,4.14,0,0,0,.14-1.38,2.41,2.41,0,0,1,.15-1.08A35.65,35.65,0,0,1,165,82.57a39.71,39.71,0,0,0,1.37-4,3.59,3.59,0,0,1,.49-1,3.76,3.76,0,0,0,.49-.88l1.28-3.15.78-1.57.69-.88a6,6,0,0,0,.3-.69,4.9,4.9,0,0,1,.29-.68c.2-.33.41-.66.64-1a3.83,3.83,0,0,0,.54-1.17,1.82,1.82,0,0,0,.1-.69,8,8,0,0,1,.88-1.67,8.85,8.85,0,0,0,.89-1.67c.19-.39.34-.72.44-1a1,1,0,0,1,.64-.59,6.93,6.93,0,0,1,.53-1.47,1.1,1.1,0,0,0-.14-1.28,1.61,1.61,0,0,0-1.23.29,2.13,2.13,0,0,1-1.32.4,1.44,1.44,0,0,1-.74-.15,2.52,2.52,0,0,0-.74-.25c0-.39-.1-.63-.29-.73a1.08,1.08,0,0,0-.64-.1,1,1,0,0,0-.64.39,1.1,1.1,0,0,0-.29.74c-.4.33-.59.44-.59.34s-.23-.11-.69,0c-.13-.13-.36-.14-.69-.05s-.52.09-.59,0a1.42,1.42,0,0,1-.34-.25.46.46,0,0,0-.34-.15.57.57,0,0,0-.49.3c-.14.19-.36.23-.69.1a2.68,2.68,0,0,0-.49.63,1.35,1.35,0,0,1-.59.54.84.84,0,0,0-.89.1,2.13,2.13,0,0,1-.78.49,4.36,4.36,0,0,1-.64.35,1.64,1.64,0,0,1-.54.14.69.69,0,0,1-.39-.14c-.13-.1-.33-.09-.59.05s-.15.24-.05.34.11.18.05.24a2.42,2.42,0,0,0-.54.79c-.1.26-.21.52-.34.79a7.45,7.45,0,0,1-.69.93,3.9,3.9,0,0,0-.59.83l-.49,1.48a5.42,5.42,0,0,1-.74,1.37,9.19,9.19,0,0,0-.83,1.37L155.19,72q-.49,1.08-1.08,2.16a14.16,14.16,0,0,0-1,2.26l-1.28,3.14a12,12,0,0,0-.49,1.67c-.13.59-.3,1.21-.49,1.87a7.58,7.58,0,0,1-.64,1.86,7.47,7.47,0,0,0-.64,2v.63a1.13,1.13,0,0,1-.1.54,5.29,5.29,0,0,1-.29,1c-.13.33-.26.68-.39,1.08-.14.78-.23,1.55-.3,2.3s-.16,1.56-.29,2.41-.36,2-.49,3.14a33.17,33.17,0,0,0-.2,4A35.16,35.16,0,0,0,148,108a9.21,9.21,0,0,0,1.77,4.17,7.91,7.91,0,0,0,3.73,2.5,21.38,21.38,0,0,0,6.33.94,1.28,1.28,0,0,1,.44.09,1.15,1.15,0,0,0,.45.1,2.31,2.31,0,0,0,.93-.19,5.62,5.62,0,0,1,.83-.3,3.36,3.36,0,0,1,.94,0,2.09,2.09,0,0,0,.83-.05l.49-.24a5,5,0,0,1,.59-.25,2.1,2.1,0,0,1,.74,0,.86.86,0,0,0,.64-.14,4.83,4.83,0,0,0,.58-.25l.69-.34,1.28-.49a1.88,1.88,0,0,0,.78-.54,2,2,0,0,1,.79-.54.62.62,0,0,1,.44-.2.62.62,0,0,0,.44-.2,4,4,0,0,0,.44-.54,2.16,2.16,0,0,1,.55-.54A8.84,8.84,0,0,1,174,110a5.8,5.8,0,0,0,1.28-.93,6.45,6.45,0,0,0,.78-1A6.24,6.24,0,0,1,177,107c.32-.33.65-.64,1-.94a7.7,7.7,0,0,0,.88-.93l.79-1.47c.26-.26.54-.56.83-.89a3.29,3.29,0,0,0,.64-1c.26-.39.49-.77.69-1.13a6.79,6.79,0,0,1,.68-1A3.18,3.18,0,0,1,183,99a2.09,2.09,0,0,0,.54-.68,6.55,6.55,0,0,0,.64-.94,8,8,0,0,0,.44-.93q.3-.49.54-.93a7.34,7.34,0,0,0,.44-.94,5.4,5.4,0,0,0,1.23-1.86,23.51,23.51,0,0,1,1-2.16,16.35,16.35,0,0,1,1.38-2.41,25.55,25.55,0,0,0,1.47-2.4Z"/><path class="cls-1" d="M225.42,101.39a5.34,5.34,0,0,0-1-.1,4.12,4.12,0,0,1-.83-.09,1.7,1.7,0,0,0-.84,0,1.16,1.16,0,0,1-.34,0,.39.39,0,0,0-.34,0,1.75,1.75,0,0,1-.4,0,1.72,1.72,0,0,0-.49-.05,11.94,11.94,0,0,0-1.23.14c-.62.1-8.07,1.58-8.73,1.71s-1.27.23-1.86.3a3.66,3.66,0,0,1-1.18,0,.45.45,0,0,0-.3.09.37.37,0,0,1-.29.1,1.31,1.31,0,0,1-.39,0,1.9,1.9,0,0,0-.4,0,1.31,1.31,0,0,0-.88.35.66.66,0,0,1-.78.15.37.37,0,0,1,0-.4.27.27,0,0,1,.35-.1,2.42,2.42,0,0,1,.1-1.17c.13-.53.29-1.08.49-1.67s.39-1.13.59-1.62a8.32,8.32,0,0,0,.39-1.23l1-2.65a5.31,5.31,0,0,0,.49-1.08,5.92,5.92,0,0,1,.49-1.08,5.73,5.73,0,0,1,.64-1.52,5.73,5.73,0,0,0,.64-1.52,2.38,2.38,0,0,0,.15-.49.9.9,0,0,1,.24-.5,7.9,7.9,0,0,1,.79-1.66,7.94,7.94,0,0,0,.78-1.67c0-.27,0-.43.1-.49a73.58,73.58,0,0,1,4.27-9.92q2.51-4.81,5.45-9.62a1,1,0,0,0-.64-.64.61.61,0,0,1-.44-.64.46.46,0,0,1,.39-.34c.2,0,.26-.18.2-.44s-.39-.33-1-.2a2,2,0,0,0-.49-.64,1.16,1.16,0,0,1-.4-.64,7.14,7.14,0,0,1-.09-.73V61a1.08,1.08,0,0,0-.05-.2,4.07,4.07,0,0,1-.15-.64L219,59.7a.94.94,0,0,0-.59-.24c-.33,0-.49.06-.49.19a.92.92,0,0,1-.2.49.79.79,0,0,1-.44.25.86.86,0,0,0-.44.25c-.13.26-.21.34-.25.24s-.14,0-.34.25c-.53.59-1,.8-1.42.63a2,2,0,0,0-1.53.15q-.39-.39-.63-.24a1.79,1.79,0,0,0-.5.44l-.49.59a.7.7,0,0,1-.54.29,4.94,4.94,0,0,0-.88-.1h-1.18c-.13.07-.18.15-.15.25a.23.23,0,0,1,0,.25.42.42,0,0,0-.35,0,1.16,1.16,0,0,1-.34,0,1.19,1.19,0,0,0-.49.68,8.49,8.49,0,0,1-.3.89q-.19.29-.39.54a6.31,6.31,0,0,0-.39.54,4.71,4.71,0,0,0-.3.73,6.15,6.15,0,0,1-1.17,2.11,4.12,4.12,0,0,0-.89,1.28q-.5,1.08-1.08,2.31t-1.08,2.4l-.39.79c-.13.26-.33.67-.59,1.23s-.54,1.12-.84,1.71-.55,1.17-.78,1.72-.41,1-.54,1.23a2.88,2.88,0,0,1-.29.83,5.53,5.53,0,0,0-.4.84c-.33.78-.64,1.6-.93,2.45s-.57,1.61-.83,2.26a6,6,0,0,0-.74,1.72c-.17.62-.34,1.19-.54,1.72l-1.57,3.73a15.65,15.65,0,0,1-.74,2,9.53,9.53,0,0,0-.64,2c-.19.53-.42,1.2-.68,2s-.46,1.49-.59,2l-.2,1.08a6.87,6.87,0,0,1-.49.83,4.17,4.17,0,0,0-.49,1,1.87,1.87,0,0,0,.73.58,4.44,4.44,0,0,1,.84.5,1.26,1.26,0,0,1,.24,1.08c-.09.32-.21.72-.34,1.17a2.09,2.09,0,0,0-.1.59.66.66,0,0,1-.19.49c-.13.33-.23.59-.3.79a2.39,2.39,0,0,0-.1.69c.07.13.14.24.2.34a3.4,3.4,0,0,1,.2.34.58.58,0,0,1-.1.35c-.07.1,0,.21.1.34a1.43,1.43,0,0,0,.44.3,1.5,1.5,0,0,0,.74,0,1,1,0,0,0,.39-.1.39.39,0,0,1,.39,0,.4.4,0,0,1,.34.19,1.45,1.45,0,0,0,.54.4,8.4,8.4,0,0,0,.89.63.75.75,0,0,1,.29.84.63.63,0,0,0,.4.29c.19.07.26.23.19.49a4.28,4.28,0,0,1-.44.4.84.84,0,0,0-.25.68c.2.46.5.59.89.4a4.37,4.37,0,0,1,1.08-.4,15.86,15.86,0,0,1,2.16-.24q1.08,0,2.16-.15l.54-.19a1.11,1.11,0,0,1,.44-.1c.52-.13,1.06-.28,1.62-.44a5.46,5.46,0,0,1,1.62-.25,7.4,7.4,0,0,1,1.42-.25c.49,0,1-.08,1.53-.14a4.28,4.28,0,0,0,1.12-.1,3.14,3.14,0,0,0,.54-.2,1.9,1.9,0,0,1,.54-.14c.23,0,7.43-1.42,8-1.42a7,7,0,0,0,1.13-.1,3.44,3.44,0,0,0,1-.29c0-.13,0-.21.1-.25a.57.57,0,0,0,.2-.24.85.85,0,0,1,.24-.69c.16-.13.15-.26-.05-.39.33-.26.39-.51.2-.74a.75.75,0,0,1-.1-.83,2.62,2.62,0,0,1,.49-1.13,1.38,1.38,0,0,0,0-1.42,1.46,1.46,0,0,1,.44-.45,1.85,1.85,0,0,0,.44-.34,1.59,1.59,0,0,1,.55-.88c.29-.26.58-.51.88-.74a4.49,4.49,0,0,0,.78-.79,1.76,1.76,0,0,0,.35-1.12,2.27,2.27,0,0,1,.49-.54.93.93,0,0,0,.29-.74A.74.74,0,0,0,225.42,101.39Z"/><path class="cls-1" d="M265.4,52.45a5.13,5.13,0,0,0-.51-1.39c-.18-.3-.63-.41-1.36-.36,0-.34.24-.66.77-1s.75-.62.67-.93a1.06,1.06,0,0,0-1-1.12,2.92,2.92,0,0,1-1.58-.65,2,2,0,0,1-1,.19l-1.26,0c-.44,0-.84,0-1.21,0a3.62,3.62,0,0,0-.85.07,4.73,4.73,0,0,0-1.33.34l-1.28.53c-.32.08-.81.19-1.49.33l-2.16.46c-.77.16-1.5.35-2.19.56a4.12,4.12,0,0,0-1.36.6c-.32.08-.66.15-1,.21s-.7.13-1,.21a10.6,10.6,0,0,0-1.94.7l-1.9.9a3.74,3.74,0,0,1-1,.47l-1.19.3a3.58,3.58,0,0,0-.61.36,1.63,1.63,0,0,1-.64.27l-1.9.89c-.61.29-1.17.57-1.71.85a10.54,10.54,0,0,1-1.48.58,4.48,4.48,0,0,0-1.32.74.39.39,0,0,0,0,.46.52.52,0,0,1,.11.42,1.53,1.53,0,0,1-.57,1,1.51,1.51,0,0,0-.56,1,1.82,1.82,0,0,1-.21,1,1.89,1.89,0,0,0-.23.87.64.64,0,0,1-.23.67.55.55,0,0,0-.26.57l.26.44a2,2,0,0,1,.17.47,1,1,0,0,0,.3,1.54.74.74,0,0,1-.32.54,6.69,6.69,0,0,0-.58.5,3,3,0,0,0-.46.58.75.75,0,0,0,0,.75.77.77,0,0,0,.86.39,1.8,1.8,0,0,1,1.12.21c.32-.08.66-.18,1-.31a3.41,3.41,0,0,1,1-.2,8.06,8.06,0,0,0-.07,1.13c0,.41,0,.82,0,1.23a4.07,4.07,0,0,1-.06.73c-.05.21-.09.39-.12.53a9.32,9.32,0,0,0-.09,1,9.32,9.32,0,0,1-.09,1,5.8,5.8,0,0,1-.17.9,6.19,6.19,0,0,0-.17.91l0,.9a9.51,9.51,0,0,1-.18,1.47,14.88,14.88,0,0,0-.26,1.58,2.09,2.09,0,0,0,.07.65.73.73,0,0,1-.06.57,1,1,0,0,1-.12.33c0,.08,0,.18.08.29a3.11,3.11,0,0,0-.18,1.26l-.77,10.44,0,2.12a12.76,12.76,0,0,1-.46,3.15,4.59,4.59,0,0,0,.12,3l-.39.1c-.06,0-.09,0-.1,0s0,0-.1,0a2.61,2.61,0,0,1-.44.27.77.77,0,0,0-.22.31.71.71,0,0,1-.22.31c-.29.21-.48.36-.6.46a.39.39,0,0,0-.09.43c0,.33,0,.55,0,.65a1.06,1.06,0,0,0,.18.51,1.56,1.56,0,0,0-.18,1.26,1,1,0,0,0-.45.83,1.06,1.06,0,0,0,.48.89,9.51,9.51,0,0,0,.09,1.34,7.94,7.94,0,0,1,.05,1.56,1.49,1.49,0,0,0-.66,1,2.14,2.14,0,0,0-.29,1c0,.23.24.5.66.8a2.36,2.36,0,0,0,.83.69,2.14,2.14,0,0,0,1.48,0c.11-.1.16-.11.14,0s.08.08.27,0c.25.2.36.36.32.47s.12.19.47.24a2.51,2.51,0,0,1,.48-.08.8.8,0,0,0,.47-.17c.41-.24.63-.35.67-.32a1.61,1.61,0,0,0,.54-.09,2,2,0,0,0,1.39-.51,3,3,0,0,1,1.22-.77,14.06,14.06,0,0,1,2-.56,9.49,9.49,0,0,0,2.05-.68l2.47-1c.62-.23,1.24-.49,1.88-.79s1.19-.54,1.68-.73a1.8,1.8,0,0,1,.7-.23,2,2,0,0,0,.7-.24,44.79,44.79,0,0,1,4.85-1.85c1.41-.43,3.1-1,5.09-1.71.42-.18.86-.37,1.31-.59s.89-.42,1.32-.59a1.85,1.85,0,0,0,.71-.39c.22-.19.48-.39.76-.6a1,1,0,0,0-.36-.82,1.67,1.67,0,0,1-.53-.67,1.35,1.35,0,0,1,.67-.94,2.65,2.65,0,0,0,.91-.79.72.72,0,0,0-.2-.4.57.57,0,0,1-.18-.31,1.8,1.8,0,0,1,.51-1,1.12,1.12,0,0,0,.31-.94.88.88,0,0,0-.68-.69.78.78,0,0,1-.66-.59c-.11-.18,0-.35.22-.52a1.06,1.06,0,0,0,.49-.68c-.07-.25-.13-.28-.18-.1s-.18.16-.37-.06a1.19,1.19,0,0,1,.71-.79,1,1,0,0,0,.56-1,1.38,1.38,0,0,0-.73-1.08l-1.26-.74c-1.34.28-2.69.53-4,.73a27.24,27.24,0,0,0-3.87.9c-1.11.42-2.15.78-3.12,1.1s-2.08.64-3.35,1l-.47.12a6.09,6.09,0,0,0-1.83.78,5.51,5.51,0,0,1-1.54.7,19.07,19.07,0,0,1,.05-2.55c.07-.76.17-1.57.3-2.41l-.1-.78a5.51,5.51,0,0,1,.23-1.64,2.08,2.08,0,0,0,0-1.46.57.57,0,0,0-.18-.31.32.32,0,0,1-.08-.33,25.4,25.4,0,0,1,3.37-1.48c1.3-.46,2.64-.91,4-1.33s2.76-.8,4.17-1.12,2.71-.62,3.93-.86a1.51,1.51,0,0,1,.51-.39.93.93,0,0,0,.42-.36c.07-.22,0-.36-.11-.42a.38.38,0,0,1-.21-.41,2,2,0,0,0,.77-.35,2.19,2.19,0,0,1,.77-.35c.1-.43,0-.7-.36-.82a1.16,1.16,0,0,1-.69-.53.77.77,0,0,1,.29-.43c.12-.06.21-.24.27-.53a1.17,1.17,0,0,1-.28-1.09,1.57,1.57,0,0,1,.58-.91,1,1,0,0,0-.28-.89,2.44,2.44,0,0,0-.87-.43l-.42-.25a.49.49,0,0,0-.37-.06,2.22,2.22,0,0,1-.55-.16l-.48-.28a1.53,1.53,0,0,1,0-.75.64.64,0,0,0-.2-.61c.47-.26.58-.71.31-1.35a1.29,1.29,0,0,0-1.3-.93.44.44,0,0,0-.35,0,.93.93,0,0,1-.32.13,7.62,7.62,0,0,0-1.26.43,8.78,8.78,0,0,1-1.35.45c-.38.09-1,.29-1.93.59s-1.54.5-1.92.6a3.73,3.73,0,0,0-1.36.24,1.18,1.18,0,0,0-.45.22.79.79,0,0,1-.36.19.83.83,0,0,1-.34,0,1.56,1.56,0,0,0-.35,0,3.75,3.75,0,0,0-1.05.42,1.7,1.7,0,0,1-.89.28,27.85,27.85,0,0,1,.33-3.43c.18-1.13.38-2.19.6-3.19a7,7,0,0,1,1.22-.57c.41-.14.86-.27,1.37-.4L259.6,61l1.18-.3.57-.15a3.71,3.71,0,0,0,.56-.19l1.15-.45a.55.55,0,0,1,.4-.46.76.76,0,0,0,.48-.48l-.05-.19a.24.24,0,0,1,0-.15.17.17,0,0,0,0-.16.56.56,0,0,1,.13-.28.77.77,0,0,0,.16-.19c.17-.92.26-1.47.28-1.65s-.19-.37-.66-.59c0-.13.1-.29.38-.5s.41-.38.38-.5a4.43,4.43,0,0,0,1.29-1.1C266.26,53.22,266.1,52.81,265.4,52.45Z"/><path class="cls-1" d="M325.29,40.07a3.1,3.1,0,0,0-1.09-.67q-.66-.24-1.5-.48c-.57-.16-1.09-.32-1.57-.48a3.22,3.22,0,0,1-1.57.12l-1.81-.24a5.44,5.44,0,0,0-1.81.06,19.31,19.31,0,0,1-1.93.3,1.71,1.71,0,0,1-.66-.06,2.31,2.31,0,0,0-.78-.06,6.44,6.44,0,0,0-1.45.12,8.58,8.58,0,0,1-.91.18,8.94,8.94,0,0,0-.9.18,5.73,5.73,0,0,1-1.33.12h-2.11a10.67,10.67,0,0,0-2,.24,1.61,1.61,0,0,0-.72.19,1.86,1.86,0,0,1-.84.18,2.8,2.8,0,0,1-.55-.06.82.82,0,0,0-.54.06,12.13,12.13,0,0,0-1.51.36,5.09,5.09,0,0,1-1.5.24h-1.39a2.45,2.45,0,0,0-1.27.36,15.56,15.56,0,0,0-2.89.48c-.89.25-1.77.45-2.65.61l-2.36.24c-.76.08-1.58.2-2.47.36q-.72.12-.78.3c0,.12-.3.22-.79.3l-1.14.18a4.71,4.71,0,0,0-.72.18l-.61.25a5.5,5.5,0,0,1-1,.24l-.73.24-.6.24a3.53,3.53,0,0,0-.9.36,9.23,9.23,0,0,1-1,.48c-.64.17-1.14.31-1.51.43s-.38.62-.06,1.5c-.16.24-.32.47-.48.67a1.07,1.07,0,0,0-.12.9c-.4.72-.54,1.23-.42,1.51a1.66,1.66,0,0,0,.48.66q.3.24.24.42a3.5,3.5,0,0,1-1.14.79,1.67,1.67,0,0,1-1.09.12q-.6-.12-.72.36-.12.84,1,.84c-.16.33-.36.71-.6,1.15s-.48.86-.72,1.27a2.88,2.88,0,0,0-.43,1.14c0,.36.14.59.55.66s.52,0,.6-.12.24,0,.48.37a2.36,2.36,0,0,0-.42,1.26,1.39,1.39,0,0,0,.54,1.27,6.24,6.24,0,0,0,1-.06q.36-.06.84-.18a9.69,9.69,0,0,1,1.33.06,2.48,2.48,0,0,0,1.08-.18l2.17-.24a13.18,13.18,0,0,0,1.81-.43,12.6,12.6,0,0,1,1.69-.42,5.69,5.69,0,0,0,1.39-.3l.72-.3a3.11,3.11,0,0,1,.73-.18,7,7,0,0,1,1.5.06A14.85,14.85,0,0,0,286,61.11a20.64,20.64,0,0,1-1.27,3l-.84,1a1.07,1.07,0,0,0-.12.54,1.21,1.21,0,0,1-.13.55q-.24.48-.54,1c-.2.32-.38.65-.54,1s-.32.76-.48,1.08-.33.69-.49,1.09a14.06,14.06,0,0,0-.84,2.11,12.4,12.4,0,0,1-1,2.23l-.85,2a1.38,1.38,0,0,0-.24.78,1.43,1.43,0,0,1-.24.79,19.85,19.85,0,0,1-.84,2.47c-.33.76-.65,1.59-1,2.47a14.67,14.67,0,0,1-.9,2.47,16.05,16.05,0,0,0-.91,2.35,30.77,30.77,0,0,0-1,3.62,25.08,25.08,0,0,1-1,3.5,13.07,13.07,0,0,1-1,2.23,10.06,10.06,0,0,0-.91,2,2.1,2.1,0,0,1-.3.6,3.15,3.15,0,0,0-.3.48,1.35,1.35,0,0,0,.06.43,1.33,1.33,0,0,1,.06.42,1.47,1.47,0,0,1-.12.54q-.12.3-.24.54a3,3,0,0,0,.24,2.48,4.92,4.92,0,0,0,1.93,1.38c0,.24.06.39.18.43l.42.12a.76.76,0,0,1,.36.18.69.69,0,0,1,.12.48q0,.6-.06.6s0,.2.06.61c0,.16.12.24.37.24s.4.16.48.48q.12.72.18,1.2c0,.33.3.57.78.73a1.24,1.24,0,0,0,1-.24,4.15,4.15,0,0,0,.84-.61,4.86,4.86,0,0,1,.67-.6.62.62,0,0,1,.36-.12h.36a2.23,2.23,0,0,0,.78-.36,3.86,3.86,0,0,1,1.09.24,6.71,6.71,0,0,1,.72-.42,5.1,5.1,0,0,1,.73-.3,5,5,0,0,0,2.17,0,1.57,1.57,0,0,0,.78-.43,3,3,0,0,1,.78-.54.66.66,0,0,1,.55,0,.94.94,0,0,0,.66,0,14.34,14.34,0,0,1,.9-2.29,13.49,13.49,0,0,0,.91-2.29,1.49,1.49,0,0,0,.24-.85,1.48,1.48,0,0,1,.24-.84c.32-1,.68-2.11,1.09-3.19s.76-2.19,1.08-3.32L293,89.57c.32-.88.6-1.79.84-2.71a18,18,0,0,1,1-2.72,7.85,7.85,0,0,1,.48-.84,2.67,2.67,0,0,0,.36-.84c.4-1,.75-2,1-3a15.88,15.88,0,0,1,1-2.65,5.87,5.87,0,0,1,.67-1.21q.42-.6.78-1.2a2,2,0,0,0,.24-.91,2.84,2.84,0,0,1,.24-1,16,16,0,0,1,1.45-2.54,10,10,0,0,0,1.33-2.77,1.67,1.67,0,0,1,.12-.72,11.08,11.08,0,0,1,.9-1.87,11.52,11.52,0,0,0,.91-1.87l.36-1.09a2.18,2.18,0,0,0-.06-1.8,18,18,0,0,0-.91-1.81,5.49,5.49,0,0,1-.6-1.39c-.08-.36.24-.62,1-.78a2.33,2.33,0,0,1,.9-.25c.52-.08,1.09-.13,1.69-.18s1.14-.1,1.63-.18a7.36,7.36,0,0,1,1-.12q.84-.12.48-.12c-.24,0-.08,0,.49-.12l1.32-.36.91-.18.48-.12a1.56,1.56,0,0,1,.48-.06,5.25,5.25,0,0,0,.91-.12,9.92,9.92,0,0,1,1.32-.12,5.21,5.21,0,0,0,1.33-.24,18.89,18.89,0,0,0,1.93-.49A5.56,5.56,0,0,1,320,53a1.17,1.17,0,0,0,.85-.36,5.1,5.1,0,0,0,0-1.57,3.1,3.1,0,0,1,.12-1.44c.16-.49.38-.69.66-.61s.5-.08.66-.48a1,1,0,0,0-.06-.78,1.1,1.1,0,0,1-.06-.79,1.44,1.44,0,0,1,.91-.84,1.09,1.09,0,0,0,.78-.73.57.57,0,0,0-.3-.84q-.54-.24-.42-.72l1.2-1.33a7.22,7.22,0,0,0,.73-.54,1.43,1.43,0,0,0,.48-.79A1.23,1.23,0,0,0,325.29,40.07Z"/><path class="cls-1" d="M69.49,92.14a9.34,9.34,0,0,0,1.25-2l.66-1.55a11.9,11.9,0,0,0,.54-1.68l.23-1.55.48-2a9.91,9.91,0,0,0-.24-1.79V79.77a3.68,3.68,0,0,0-.24-1.37,44.42,44.42,0,0,0-2.62-6.93q-.24-.24-.36-.24.12-.24-.24-.48a.61.61,0,0,1-.24-.72A10.89,10.89,0,0,1,67.1,67.7a7.06,7.06,0,0,0-1.86-2.21c.08-.16,0-.25-.12-.3s-.2-.13-.11-.29a14.61,14.61,0,0,0-1.2-1.08l-1.19-1a19.55,19.55,0,0,1-2.39-1.67l-1.68-2.27a1.64,1.64,0,0,0-.42-.78,1.47,1.47,0,0,1-.41-.65q-.24-.84-.42-1.62a14.39,14.39,0,0,0-.54-1.73c0-.4,0-.82-.06-1.25a2.55,2.55,0,0,1,.3-1.38,9.78,9.78,0,0,1,1.85-2.39,11.07,11.07,0,0,1,2.21-1.67.65.65,0,0,1,.24-.3.65.65,0,0,0,.24-.3A38.39,38.39,0,0,1,71.46,43a1.15,1.15,0,0,0,.83-.06,1.19,1.19,0,0,1,.84-.06c1.2-.08,2.11-.16,2.75-.24s1.17-.16,1.61-.24a5.25,5.25,0,0,1,1.38-.06,15.16,15.16,0,0,1,2.15.42q.24.48.48.48c.07-.16.18-.14.29.06s.22.22.3.06q.24,0,.12-.18t0-.3a3,3,0,0,0,1.38-1.26A2.8,2.8,0,0,0,84,39.8c.56-.56.68-1.09.36-1.61a7.46,7.46,0,0,0-1.07-1.38c.63-.24.89-.57.77-1a2,2,0,0,1,.06-1.26l.48-.6a8.35,8.35,0,0,0,.78-.89l.78-1a2,2,0,0,0,.35-.47,5.87,5.87,0,0,1,.36-.6,2.73,2.73,0,0,1,.78-1,4.66,4.66,0,0,0,.9-.89,1.36,1.36,0,0,0,.06-1,1.32,1.32,0,0,1,.06-1l.23-.47a1.88,1.88,0,0,1,.36-.48q0-.24-.36-.54a.88.88,0,0,0-1-.06l-1.32-1a1.85,1.85,0,0,0-1.19-.3,6,6,0,0,1-2.15-.36c-.64-.24-1.4-.48-2.27-.72a5.06,5.06,0,0,0-.84-.12,5,5,0,0,1-1-.12,3.35,3.35,0,0,0-1.44-.12l-1.07-.18a1.2,1.2,0,0,0-.54,0,1.82,1.82,0,0,1-.54.06,7.22,7.22,0,0,1-1.08-.12c-.08.16-.16.22-.23.18a.2.2,0,0,0-.24.06q-.84,0-1.62.06a8.09,8.09,0,0,0-1.61.3l-.36-.24a1,1,0,0,1-.83.12,4.46,4.46,0,0,0-1.08-.12,13.58,13.58,0,0,0-1.55.36,14.23,14.23,0,0,1-1.56.36c-.87.16-1.73.36-2.57.6a23.45,23.45,0,0,1-2.57.59,2.51,2.51,0,0,1-1.55.36.71.71,0,0,1-.6.36,12.75,12.75,0,0,0-3.4,1.2A17.31,17.31,0,0,1,51.38,28l-.42.42a.48.48,0,0,1-.53.06,17,17,0,0,1-3.89,2.21,9.47,9.47,0,0,0-3.64,2.69,6.28,6.28,0,0,0-1.26.71c-.44.32-.85.64-1.25,1s-.62.48-.9.72a2.33,2.33,0,0,0-.65.95q-.48.6-.84,1t-.84.9c-.24.23-.48.47-.71.71a3.2,3.2,0,0,0-.6.84,11.54,11.54,0,0,0-.6,1.13,8.78,8.78,0,0,1-.72,1.26l-.47.72a16.51,16.51,0,0,0-1.56,6.81,11.46,11.46,0,0,0,1.56,6,10.18,10.18,0,0,0,1.61,2.51A23.61,23.61,0,0,0,38,61,11,11,0,0,0,39.85,63,20.27,20.27,0,0,1,41.7,64.9l2.63,2.62a23,23,0,0,1,2.27,2.63A9.07,9.07,0,0,1,48,71.29c.43.44.85.89,1.25,1.37q-.12.24-.3.18T49,73a1.92,1.92,0,0,1,1,1.56,8.93,8.93,0,0,0,.36,1.79c-.16.79-.28,1.57-.36,2.33a3,3,0,0,1-1.08,2A2.25,2.25,0,0,1,48.28,82a3.2,3.2,0,0,1-1.08.72,4.37,4.37,0,0,0-.72.06,5.13,5.13,0,0,1-.83.06,1,1,0,0,1-.42.54l-.54.3c-.56.16-6.43-2.53-6.71-2.61l-1.25-.36a2.6,2.6,0,0,0-1-.06,1.9,1.9,0,0,1-.84-.06,5.81,5.81,0,0,1-.89-.3,5.94,5.94,0,0,0-.9-.3H31.83a1.07,1.07,0,0,1-.48-.12,1.21,1.21,0,0,0-.48-.12.54.54,0,0,0-.36.12.49.49,0,0,1-.36.12,3.86,3.86,0,0,1-.83-.06,1.77,1.77,0,0,0-.72.06l-1.19.24a.69.69,0,0,1-.48.12,1.67,1.67,0,0,0-1.2,1.73,2.22,2.22,0,0,0,1.08,1.74,1,1,0,0,1-.6.59q-.36.12-.6.84a2.12,2.12,0,0,0,.36.66,3.15,3.15,0,0,1,.36.54,4.13,4.13,0,0,1-1.91,2.51,3,3,0,0,1-1.68,1.55c-.79.8-.95,1.49-.47,2.09a5.37,5.37,0,0,0,1.91,1.49c-.56.48-1.06.92-1.49,1.32a4.78,4.78,0,0,1-1.62,1,.35.35,0,0,0-.12.24.92.92,0,0,1-.12.36,4.68,4.68,0,0,0-1.67,1,1.55,1.55,0,0,0,.36.95.84.84,0,0,1,.36.06.53.53,0,0,0,.24.06,4.26,4.26,0,0,0,2,1.32,11.34,11.34,0,0,0,2.33.48c.79.08,1.59.14,2.39.18a14.81,14.81,0,0,1,2.27.29q.12.24,0,.24t0,.24a2.53,2.53,0,0,1,1,.18,2,2,0,0,0,.78.18,6.25,6.25,0,0,0,1.91-.06c.72-.12,1.4-.22,2-.3l3.11-.36c2.07-.24,9.56,2.19,11.55,1.83a33.27,33.27,0,0,0,5.62-1.49,5.28,5.28,0,0,0,2.39-.54,8.81,8.81,0,0,1,2.27-.77,5.83,5.83,0,0,1,1.79-1.08A3.12,3.12,0,0,0,63.09,98a1.65,1.65,0,0,0,1-.54,1.61,1.61,0,0,1,.84-.54,18.8,18.8,0,0,1,1.55-1.61A20.75,20.75,0,0,0,68,93.69,10.66,10.66,0,0,0,69.49,92.14Z"/></svg>